<svg width="100" height="100" viewBox="0 0 100 100" fill="none" xmlns="http://www.w3.org/2000/svg">
<path d="M83.8119 23.6581C81.9323 21.8643 79.7007 20.4413 77.2444 19.4705C74.7882 18.4997 72.1555 18 69.4968 18C66.838 18 64.2053 18.4997 61.7491 19.4705C59.2929 20.4413 57.0612 21.8643 55.1817 23.6581L51.2809 27.379L47.3801 23.6581C43.5835 20.0365 38.4342 18.0019 33.065 18.0019C27.6957 18.0019 22.5464 20.0365 18.7498 23.6581C14.9532 27.2797 12.8203 32.1916 12.8203 37.3133C12.8203 42.435 14.9532 47.347 18.7498 50.9686L22.6506 54.6895L51.2809 82L79.9111 54.6895L83.8119 50.9686C85.6924 49.1756 87.1841 47.0468 88.2018 44.7038C89.2196 42.3608 89.7434 39.8495 89.7434 37.3133C89.7434 34.7771 89.2196 32.2658 88.2018 29.9228C87.1841 27.5798 85.6924 25.451 83.8119 23.6581Z" fill="url(#paint0_linear_640_571)"/>
<g filter="url(#filter0_b_640_571)">
<path d="M41.6667 64.7693C40.936 64.7686 40.2184 64.5834 39.5858 64.2324C38.9532 63.8813 38.4278 63.3768 38.0625 62.7693L30.9583 50.5096L26.4167 57.0495C26.0258 57.5906 25.5019 58.0306 24.8913 58.3307C24.2807 58.6307 23.6025 58.7814 22.9167 58.7694H4.16667C3.0616 58.7694 2.00179 58.348 1.22039 57.5979C0.438987 56.8477 0 55.8304 0 54.7695C0 53.7087 0.438987 52.6913 1.22039 51.9411C2.00179 51.191 3.0616 50.7696 4.16667 50.7696H20.6875L27.7917 40.5498C28.1886 39.9804 28.7312 39.5184 29.3675 39.2081C30.0038 38.8978 30.7124 38.7496 31.4255 38.7777C32.1386 38.8058 32.8322 39.0093 33.4399 39.3686C34.0476 39.7279 34.5489 40.2311 34.8958 40.8298L41.6667 52.7696L52.5625 34.77C52.9348 34.1506 53.4733 33.6384 54.1218 33.2867C54.7703 32.9349 55.5052 32.7565 56.25 32.77C56.9771 32.7742 57.6905 32.961 58.3191 33.3119C58.9477 33.6627 59.4698 34.1654 59.8333 34.77L69.8125 50.7696L73.9792 47.6097C74.7177 47.0594 75.6276 46.7635 76.5625 46.7697H95.8333C96.9384 46.7697 97.9982 47.1911 98.7796 47.9412C99.561 48.6914 100 49.7088 100 50.7696C100 51.8304 99.561 52.8478 98.7796 53.598C97.9982 54.3481 96.9384 54.7695 95.8333 54.7695H78.0208L71.25 59.9094C70.7835 60.2778 70.2391 60.5444 69.6546 60.6908C69.07 60.8372 68.4593 60.8597 67.8648 60.757C67.2703 60.6543 66.7061 60.4287 66.2115 60.0958C65.7168 59.763 65.3034 59.3309 65 58.8294L56.25 44.6497L45.2708 62.7693C44.9055 63.3768 44.3802 63.8813 43.7476 64.2324C43.115 64.5834 42.3973 64.7686 41.6667 64.7693Z" fill="white" fill-opacity="0.2"/>
</g>
<defs>
<filter id="filter0_b_640_571" x="-25" y="7.76929" width="150" height="82" filterUnits="userSpaceOnUse" color-interpolation-filters="sRGB">
<feFlood flood-opacity="0" result="BackgroundImageFix"/>
<feGaussianBlur in="BackgroundImageFix" stdDeviation="12.5"/>
<feComposite in2="SourceAlpha" operator="in" result="effect1_backgroundBlur_640_571"/>
<feBlend mode="normal" in="SourceGraphic" in2="effect1_backgroundBlur_640_571" result="shape"/>
</filter>
<linearGradient id="paint0_linear_640_571" x1="12.8203" y1="47.8667" x2="87.8991" y2="48.2693" gradientUnits="userSpaceOnUse">
<stop stop-color="#FF7070"/>
<stop offset="1" stop-color="#FF7070" stop-opacity="0.65"/>
</linearGradient>
</defs>
</svg>
